<?xml version="1.0" encoding="utf-8"?>
<!-- Generator: Adobe Illustrator 16.0.0, SVG Export Plug-In . SVG Version: 6.00 Build 0)  -->
<!DOCTYPE svg PUBLIC "-//W3C//DTD SVG 1.1//EN" "http://www.w3.org/Graphics/SVG/1.1/DTD/svg11.dtd">
<svg version="1.1" id="Layer_4" xmlns="http://www.w3.org/2000/svg" xmlns:xlink="http://www.w3.org/1999/xlink" x="0px" y="0px"
	 width="1516px" height="212px" viewBox="0 0 1516 212" enable-background="new 0 0 1516 212" xml:space="preserve">
<g enable-background="new    ">
	<path fill="#FF4646" d="M934.295,147.207c-9.52,0-17.431-1.34-23.731-4.014c-6.303-2.672-11.017-6.164-14.144-10.471
		c-3.129-4.307-4.783-8.861-4.965-13.668c0-0.816,0.272-1.496,0.816-2.041c0.544-0.543,1.225-0.816,2.04-0.816h21.624
		c1.269,0,2.266,0.205,2.992,0.613c0.725,0.408,1.496,0.975,2.312,1.699c0.815,1,1.769,1.928,2.856,2.789s2.492,1.543,4.216,2.039
		c1.722,0.5,3.716,0.748,5.983,0.748c4.17,0,7.389-0.564,9.656-1.699c2.266-1.133,3.4-2.697,3.4-4.693
		c0-1.539-0.612-2.809-1.836-3.807c-1.225-0.998-3.287-1.904-6.188-2.721c-2.903-0.816-6.848-1.676-11.832-2.584
		c-6.983-1.178-13.012-2.924-18.089-5.236c-5.079-2.312-8.954-5.44-11.628-9.384c-2.676-3.944-4.012-8.816-4.012-14.62
		c0-5.893,1.653-11.105,4.964-15.64c3.309-4.533,7.933-8.068,13.872-10.608c5.938-2.537,12.852-3.808,20.74-3.808
		c6.527,0,12.308,0.863,17.34,2.584c5.031,1.724,9.27,3.967,12.716,6.732c3.444,2.767,6.073,5.735,7.888,8.908
		c1.813,3.175,2.765,6.211,2.856,9.112c0,0.815-0.296,1.519-0.884,2.107c-0.591,0.591-1.248,0.884-1.973,0.884h-22.712
		c-1.088,0-1.995-0.181-2.72-0.544c-0.727-0.361-1.451-0.951-2.176-1.768c-0.455-1.269-1.588-2.401-3.4-3.4
		c-1.814-0.996-4.127-1.496-6.936-1.496c-3.084,0-5.44,0.523-7.072,1.564c-1.632,1.043-2.448,2.563-2.448,4.556
		c0,1.36,0.497,2.54,1.496,3.536c0.997,0.999,2.765,1.883,5.304,2.652c2.537,0.771,6.074,1.61,10.608,2.516
		c8.612,1.271,15.571,3.084,20.876,5.44c5.304,2.358,9.18,5.439,11.628,9.248c2.448,3.808,3.672,8.568,3.672,14.279
		c0,6.439-1.859,11.969-5.576,16.594c-3.719,4.623-8.818,8.182-15.3,10.676C950.048,145.959,942.637,147.207,934.295,147.207z"/>
	<path fill="#FF4646" d="M1012.768,145.846c-0.999,0-1.836-0.34-2.516-1.02c-0.681-0.68-1.021-1.518-1.021-2.516V75.942H985.84
		c-0.999,0-1.836-0.34-2.517-1.02c-0.68-0.68-1.02-1.518-1.02-2.517V54.182c0-0.997,0.34-1.836,1.02-2.516
		c0.681-0.68,1.518-1.02,2.517-1.02h76.432c0.997,0,1.836,0.34,2.517,1.02c0.68,0.68,1.02,1.52,1.02,2.516v18.224
		c0,0.999-0.34,1.837-1.02,2.517c-0.681,0.68-1.52,1.02-2.517,1.02h-23.392v66.369c0,0.998-0.34,1.836-1.021,2.516
		c-0.68,0.68-1.519,1.02-2.516,1.02H1012.768z"/>
	<path fill="#FF4646" d="M1118.574,147.207c-8.432,0-15.844-1.316-22.235-3.945c-6.393-2.629-11.38-6.732-14.96-12.307
		c-3.583-5.576-5.372-12.625-5.372-21.148V54.182c0-0.997,0.361-1.836,1.088-2.516c0.725-0.68,1.54-1.02,2.448-1.02h22.168
		c0.996,0,1.836,0.34,2.516,1.02c0.68,0.68,1.021,1.52,1.021,2.516v55.216c0,4.623,1.132,8.115,3.399,10.473
		c2.266,2.357,5.529,3.535,9.792,3.535c4.261,0,7.501-1.178,9.725-3.535c2.22-2.357,3.331-5.85,3.331-10.473V54.182
		c0-0.997,0.361-1.836,1.089-2.516c0.725-0.68,1.585-1.02,2.584-1.02h22.031c0.997,0,1.836,0.34,2.517,1.02
		c0.68,0.68,1.02,1.52,1.02,2.516v55.625c0,8.523-1.768,15.572-5.304,21.148c-3.536,5.574-8.479,9.678-14.824,12.307
		C1134.259,145.891,1126.915,147.207,1118.574,147.207z"/>
	<path fill="#FF4646" d="M1180.454,145.846c-0.907,0-1.724-0.34-2.448-1.02c-0.727-0.68-1.088-1.518-1.088-2.516V54.182
		c0-0.997,0.361-1.836,1.088-2.516c0.725-0.68,1.541-1.02,2.448-1.02h37.265c8.793,0,16.409,1.428,22.848,4.284
		c6.437,2.856,11.513,7.051,15.231,12.58c3.717,5.531,5.713,12.331,5.984,20.4c0.181,3.898,0.272,7.344,0.272,10.336
		c0,2.991-0.092,6.392-0.272,10.199c-0.363,8.523-2.291,15.551-5.78,21.08c-3.491,5.531-8.41,9.635-14.756,12.309
		c-6.347,2.676-13.963,4.012-22.848,4.012H1180.454z M1206.158,122.727h11.561c2.991,0,5.529-0.498,7.615-1.496
		c2.085-0.996,3.717-2.561,4.896-4.691c1.177-2.131,1.813-4.873,1.904-8.229c0.089-2.629,0.157-4.986,0.203-7.073
		c0.045-2.084,0.045-4.169,0-6.256c-0.046-2.084-0.114-4.396-0.203-6.936c-0.184-4.985-1.611-8.613-4.284-10.88
		c-2.676-2.266-6.279-3.4-10.813-3.4h-10.88V122.727z"/>
	<path fill="#FF4646" d="M1279.461,145.846c-0.907,0-1.724-0.34-2.448-1.02c-0.727-0.68-1.088-1.518-1.088-2.516V54.182
		c0-0.997,0.361-1.836,1.088-2.516c0.725-0.68,1.541-1.02,2.448-1.02h23.12c0.997,0,1.836,0.34,2.516,1.02
		c0.681,0.68,1.021,1.52,1.021,2.516v88.128c0,0.998-0.34,1.836-1.021,2.516c-0.68,0.68-1.519,1.02-2.516,1.02H1279.461z"/>
	<path fill="#FF4646" d="M1364.053,147.207c-8.704,0-16.252-1.361-22.644-4.08c-6.393-2.721-11.425-6.822-15.097-12.309
		c-3.672-5.484-5.644-12.309-5.916-20.469c-0.091-3.807-0.136-7.728-0.136-11.763c0-4.033,0.045-8.046,0.136-12.036
		c0.272-8.068,2.244-14.869,5.916-20.4c3.672-5.529,8.726-9.724,15.164-12.58c6.437-2.856,13.962-4.284,22.576-4.284
		c8.521,0,16.001,1.428,22.44,4.284c6.437,2.856,11.513,7.051,15.231,12.58c3.717,5.531,5.665,12.332,5.849,20.4
		c0.181,3.99,0.271,8.003,0.271,12.036c0,4.035-0.091,7.957-0.271,11.763c-0.272,8.16-2.244,14.984-5.916,20.469
		c-3.673,5.486-8.704,9.588-15.097,12.309C1380.169,145.846,1372.665,147.207,1364.053,147.207z M1364.053,124.086
		c3.808,0,6.937-1.156,9.384-3.467c2.448-2.313,3.717-6.006,3.809-11.084c0.181-3.898,0.271-7.685,0.271-11.357
		s-0.091-7.412-0.271-11.22c-0.092-3.354-0.704-6.12-1.836-8.296c-1.135-2.177-2.676-3.762-4.624-4.761
		c-1.951-0.996-4.195-1.496-6.732-1.496c-2.539,0-4.807,0.5-6.8,1.496c-1.995,0.999-3.56,2.584-4.692,4.761
		c-1.135,2.176-1.746,4.942-1.836,8.296c-0.091,3.808-0.136,7.548-0.136,11.22s0.045,7.459,0.136,11.357
		c0.181,5.078,1.473,8.771,3.876,11.084C1357.002,122.93,1360.153,124.086,1364.053,124.086z"/>
	<path fill="#FF4646" d="M1459.522,147.207c-9.52,0-17.431-1.34-23.731-4.014c-6.303-2.672-11.016-6.164-14.145-10.471
		c-3.128-4.307-4.783-8.861-4.964-13.668c0-0.816,0.272-1.496,0.816-2.041c0.544-0.543,1.224-0.816,2.04-0.816h21.624
		c1.269,0,2.265,0.205,2.992,0.613c0.725,0.408,1.496,0.975,2.312,1.699c0.816,1,1.769,1.928,2.856,2.789s2.492,1.543,4.216,2.039
		c1.721,0.5,3.717,0.748,5.983,0.748c4.17,0,7.389-0.564,9.656-1.699c2.266-1.133,3.4-2.697,3.4-4.693
		c0-1.539-0.612-2.809-1.836-3.807c-1.225-0.998-3.287-1.904-6.188-2.721c-2.902-0.816-6.847-1.676-11.832-2.584
		c-6.982-1.178-13.011-2.924-18.088-5.236c-5.078-2.312-8.954-5.44-11.628-9.384c-2.675-3.944-4.012-8.816-4.012-14.62
		c0-5.893,1.653-11.105,4.964-15.64c3.309-4.533,7.933-8.068,13.872-10.608c5.938-2.537,12.852-3.808,20.74-3.808
		c6.527,0,12.308,0.863,17.34,2.584c5.032,1.724,9.27,3.967,12.716,6.732c3.444,2.767,6.073,5.735,7.888,8.908
		c1.813,3.175,2.765,6.211,2.856,9.112c0,0.815-0.296,1.519-0.884,2.107c-0.591,0.591-1.248,0.884-1.973,0.884h-22.712
		c-1.088,0-1.995-0.181-2.72-0.544c-0.727-0.361-1.451-0.951-2.176-1.768c-0.455-1.269-1.588-2.401-3.4-3.4
		c-1.814-0.996-4.127-1.496-6.936-1.496c-3.084,0-5.44,0.523-7.072,1.564c-1.632,1.043-2.448,2.563-2.448,4.556
		c0,1.36,0.497,2.54,1.496,3.536c0.997,0.999,2.765,1.883,5.304,2.652c2.538,0.771,6.073,1.61,10.608,2.516
		c8.612,1.271,15.572,3.084,20.876,5.44c5.304,2.358,9.18,5.439,11.628,9.248c2.448,3.808,3.672,8.568,3.672,14.279
		c0,6.439-1.859,11.969-5.576,16.594c-3.719,4.623-8.818,8.182-15.3,10.676C1475.275,145.959,1467.863,147.207,1459.522,147.207z"/>
</g>
<g>
	<rect x="10.975" y="9.99" fill="#020F29" width="852.084" height="192.02"/>
	<g>
		<path fill="#FFFFFF" d="M54.928,153.602c-0.906,0-1.723-0.342-2.447-1.021c-0.728-0.68-1.088-1.518-1.088-2.516V61.936
			c0-0.997,0.36-1.836,1.088-2.516c0.725-0.68,1.541-1.021,2.447-1.021h37.265c8.793,0,16.409,1.429,22.848,4.284
			c6.438,2.856,11.513,7.051,15.232,12.58c3.717,5.531,5.712,12.332,5.983,20.4c0.182,3.897,0.272,7.344,0.272,10.336
			c0,2.991-0.091,6.392-0.272,10.199c-0.362,8.523-2.291,15.551-5.779,21.08c-3.492,5.531-8.411,9.635-14.757,12.309
			c-6.347,2.678-13.963,4.014-22.848,4.014H54.928z M80.632,130.479h11.561c2.992,0,5.528-0.496,7.616-1.496
			c2.084-0.996,3.716-2.561,4.896-4.691c1.177-2.129,1.813-4.871,1.904-8.229c0.089-2.628,0.157-4.985,0.204-7.071
			c0.044-2.084,0.044-4.169,0-6.256c-0.047-2.086-0.115-4.396-0.204-6.937c-0.184-4.985-1.611-8.613-4.284-10.88
			c-2.675-2.266-6.279-3.4-10.813-3.4h-10.88V130.479z"/>
		<path fill="#FFFFFF" d="M153.937,153.602c-0.907,0-1.724-0.342-2.448-1.021c-0.728-0.68-1.088-1.518-1.088-2.516V61.936
			c0-0.997,0.36-1.836,1.088-2.516c0.725-0.68,1.541-1.021,2.448-1.021h38.761c12.328,0,22.008,2.813,29.035,8.433
			c7.024,5.623,10.541,13.464,10.541,23.527c0,6.349-1.452,11.743-4.354,16.185c-2.903,4.442-6.711,7.937-11.425,10.474
			l17.681,32.096c0.272,0.545,0.408,1.043,0.408,1.496c0,0.816-0.272,1.52-0.816,2.107c-0.544,0.592-1.224,0.885-2.04,0.885h-22.983
			c-1.724,0-3.038-0.43-3.943-1.291c-0.907-0.861-1.496-1.654-1.768-2.381l-13.602-28.016h-9.792v28.15c0,1-0.34,1.836-1.02,2.518
			c-0.681,0.68-1.521,1.02-2.517,1.02H153.937L153.937,153.602z M179.64,99.472h12.92c3.174,0,5.529-0.884,7.072-2.651
			c1.541-1.769,2.313-3.966,2.313-6.597c0-2.72-0.748-5.032-2.244-6.936c-1.496-1.904-3.877-2.856-7.142-2.856h-12.92V99.472z"/>
		<path fill="#FFFFFF" d="M250.086,153.602c-0.906,0-1.723-0.342-2.447-1.021c-0.727-0.68-1.088-1.518-1.088-2.516V61.936
			c0-0.997,0.361-1.836,1.088-2.516c0.726-0.68,1.541-1.021,2.447-1.021h66.64c0.996,0,1.857,0.341,2.584,1.021
			c0.726,0.68,1.089,1.52,1.089,2.516v16.048c0,0.908-0.363,1.725-1.089,2.448c-0.727,0.728-1.588,1.088-2.584,1.088h-42.022v13.464
			h39.031c0.995,0,1.856,0.342,2.584,1.021c0.725,0.68,1.088,1.52,1.088,2.516v14.688c0,1-0.363,1.837-1.088,2.519
			c-0.728,0.682-1.589,1.021-2.584,1.021h-39.031v13.73h43.11c0.996,0,1.857,0.363,2.585,1.088c0.725,0.729,1.088,1.588,1.088,2.584
			v15.914c0,0.998-0.363,1.836-1.088,2.516c-0.728,0.68-1.589,1.021-2.585,1.021H250.086z"/>
		<path fill="#FFFFFF" d="M330.462,153.602c-0.816,0-1.496-0.293-2.04-0.885c-0.544-0.59-0.816-1.293-0.816-2.107
			c0-0.361,0.046-0.68,0.138-0.951l31.008-87.042c0.361-0.997,0.996-1.949,1.903-2.856c0.904-0.905,2.177-1.36,3.809-1.36h24.888
			c1.723,0,3.037,0.455,3.944,1.36c0.905,0.907,1.496,1.859,1.768,2.856l31.146,87.042c0.089,0.271,0.136,0.59,0.136,0.951
			c0,0.814-0.295,1.52-0.884,2.107c-0.591,0.592-1.292,0.885-2.108,0.885h-20.942c-1.543,0-2.676-0.361-3.4-1.088
			c-0.727-0.727-1.224-1.404-1.496-2.041l-4.216-11.424h-32.775l-4.217,11.424c-0.271,0.637-0.748,1.314-1.428,2.041
			c-0.681,0.727-1.836,1.088-3.468,1.088H330.462L330.462,153.602z M366.773,116.063h20.266l-10.2-30.6L366.773,116.063z"/>
		<path fill="#FFFFFF" d="M438.987,153.602c-0.998,0-1.859-0.342-2.584-1.021c-0.728-0.68-1.089-1.518-1.089-2.516V61.936
			c0-0.997,0.361-1.836,1.089-2.516c0.725-0.68,1.586-1.021,2.584-1.021h18.089c1.632,0,2.854,0.455,3.672,1.36
			c0.814,0.907,1.359,1.542,1.632,1.904l21.76,37.808L505.9,61.664c0.271-0.361,0.815-0.997,1.633-1.904
			c0.814-0.905,2.04-1.36,3.672-1.36h18.088c0.996,0,1.836,0.341,2.516,1.021c0.681,0.68,1.021,1.52,1.021,2.516v88.129
			c0,1-0.341,1.836-1.021,2.518c-0.68,0.68-1.52,1.02-2.516,1.02h-20.4c-0.999,0-1.836-0.34-2.516-1.02
			c-0.681-0.682-1.021-1.518-1.021-2.518V106l-12.238,21.488c-0.455,0.727-1.044,1.451-1.77,2.176
			c-0.727,0.727-1.768,1.088-3.128,1.088h-8.296c-1.271,0-2.268-0.361-2.992-1.088c-0.727-0.725-1.314-1.449-1.768-2.176
			L462.924,106v44.064c0,0.998-0.34,1.836-1.021,2.516s-1.52,1.021-2.517,1.021H438.987L438.987,153.602z"/>
		<path fill="#FFFFFF" d="M544.931,153.602c-0.815,0-1.496-0.293-2.04-0.885c-0.544-0.59-0.815-1.293-0.815-2.107
			c0-0.361,0.045-0.68,0.137-0.951l31.008-87.042c0.361-0.997,0.996-1.949,1.903-2.856c0.905-0.905,2.177-1.36,3.809-1.36h24.889
			c1.722,0,3.037,0.455,3.943,1.36c0.905,0.907,1.496,1.859,1.769,2.856l31.145,87.042c0.089,0.271,0.136,0.59,0.136,0.951
			c0,0.814-0.295,1.52-0.884,2.107c-0.591,0.592-1.292,0.885-2.107,0.885h-20.943c-1.543,0-2.676-0.361-3.399-1.088
			c-0.728-0.727-1.225-1.404-1.496-2.041l-4.217-11.424H574.99l-4.216,11.424c-0.272,0.637-0.748,1.314-1.429,2.041
			s-1.836,1.088-3.468,1.088H544.931L544.931,153.602z M581.242,116.063h20.265l-10.2-30.6L581.242,116.063z"/>
		<path fill="#FFFFFF" d="M653.32,153.602c-0.907,0-1.725-0.342-2.448-1.021c-0.728-0.68-1.088-1.518-1.088-2.516V61.936
			c0-0.997,0.36-1.836,1.088-2.516c0.725-0.68,1.541-1.021,2.448-1.021h38.76c12.33,0,22.009,2.813,29.036,8.433
			c7.024,5.623,10.54,13.464,10.54,23.527c0,6.349-1.451,11.743-4.353,16.185c-2.902,4.442-6.711,7.937-11.424,10.474l17.68,32.096
			c0.272,0.545,0.408,1.043,0.408,1.496c0,0.816-0.271,1.52-0.815,2.107c-0.544,0.592-1.225,0.885-2.04,0.885h-22.983
			c-1.724,0-3.039-0.43-3.943-1.291c-0.907-0.861-1.496-1.654-1.769-2.381l-13.601-28.016h-9.792v28.15c0,1-0.341,1.836-1.021,2.518
			c-0.681,0.68-1.52,1.02-2.517,1.02H653.32L653.32,153.602z M679.023,99.472h12.921c3.173,0,5.528-0.884,7.071-2.651
			c1.541-1.769,2.313-3.966,2.313-6.597c0-2.72-0.748-5.032-2.243-6.936c-1.496-1.904-3.876-2.856-7.141-2.856h-12.92
			L679.023,99.472L679.023,99.472z"/>
		<path fill="#FFFFFF" d="M769.601,153.602c-0.999,0-1.836-0.342-2.516-1.021c-0.681-0.68-1.021-1.518-1.021-2.516V83.695h-23.393
			c-0.999,0-1.836-0.34-2.517-1.02s-1.021-1.518-1.021-2.516V61.936c0-0.997,0.34-1.836,1.021-2.516s1.518-1.021,2.517-1.021h76.432
			c0.997,0,1.836,0.341,2.518,1.021c0.68,0.68,1.02,1.52,1.02,2.516V80.16c0,0.999-0.34,1.836-1.02,2.516
			c-0.682,0.68-1.521,1.02-2.518,1.02h-23.392v66.369c0,1-0.34,1.836-1.021,2.518c-0.681,0.68-1.52,1.02-2.517,1.02H769.601
			L769.601,153.602z"/>
	</g>
</g>
</svg>
