<?xml version="1.0" encoding="utf-8"?>
<!-- Generator: Adobe Illustrator 16.0.0, SVG Export Plug-In . SVG Version: 6.00 Build 0)  -->
<!DOCTYPE svg PUBLIC "-//W3C//DTD SVG 1.1//EN" "http://www.w3.org/Graphics/SVG/1.1/DTD/svg11.dtd">
<svg version="1.1" id="Layer_1" xmlns="http://www.w3.org/2000/svg" xmlns:xlink="http://www.w3.org/1999/xlink" x="0px" y="0px"
	 width="624px" height="285.8px" viewBox="0 0 624 285.8" enable-background="new 0 0 624 285.8" xml:space="preserve">
<g>
	<path fill="#FF4646" d="M157.8,80.8c-12.9,57-49.3,106-67.9,96.8c-6.2-3-14.3-15.8-10.3-38.4c4.1-23.4,19.6-91.4,23-112.4
		c0-0.8,24.6,1.8,22.6,10.2c-0.7,3-8,26.2-14.6,54.8c-6.7,28.6-9.9,42-11.7,55.2c-1.9,13.6-5.7,25.8-0.9,26
		c13.4,0.8,27.9-45.6,37.8-92.2c9.4-43.6,1.3-58-17.6-60.4c-28-3.6-77.1,35.6-87,109.6c-9.9,74.8,28.5,84.4,58.1,66
		c1.7-1-6.3,36.6-7.7,37.4C54.4,247,5.6,211.6,14.2,137C23.7,56,86.4,8.6,121.6,13C146.1,16,168.4,34,157.8,80.8z"/>
	<path fill="#FF4646" d="M148.7,139.2c4.3-23.4,11.4-53.4,14.9-74.4c0.1-0.8,24,1,22,9.4c-0.6,2.2-4.3,12-9.9,36.2
		c11.3-33.4,21.7-41,25.2-36.2c4.9,6.8,12.3,22,2.7,54.8v0.2c-4,0.8-22.6-7.4-21.3-13.4c0.4-1.6,20.2-32.2,17.3-34
		c-4.4-3-18.2,8.4-34.8,83.8c-1.9,10.8-1.7,12-1.7,12C153.1,180,142.9,172,148.7,139.2z"/>
	<path fill="#FF4646" d="M222.2,145.6c-0.1,12,2.4,19.6,7.6,21c6,1.6,21.6-10.8,29.7-32.6c2.7-7,3.4-7.6,3.4-4c0,1.2-0.4,4-2.1,8.2
		c-8.3,20.2-23.9,38.8-38.2,38.8c-15.4,0-25.6-26-19.7-52.6c8.9-40,36.2-57,42.6-48.2c1.9,2.8,14.9,12,13.7,20.8
		C257.6,109.4,239.2,129.6,222.2,145.6z M222.7,137.8c15.2-20,25.6-51.6,21.5-54.6c-5.9-4.2-14.4,17.8-19.3,41.2
		C223.9,129.2,223.2,133.8,222.7,137.8z"/>
	<path fill="#FF4646" d="M269.8,177c-11.6,0-21.5-26-15.6-52.6c8.9-40,32.3-57.4,38.2-48.2c2.1,3.4,4.1,7.6,5.4,11.2
		c6.4,0.8,18,4.6,17,9.2c-0.4,1.8-10.4,28.8-13.6,55.2c-1.7,14.8-2.4,16.6,2,11.6c3.3-3.8,9-16.6,13.7-29.4c2.7-7,3.4-7.6,3.4-4
		c0,1.2-0.4,4-2.1,8.2c-4.3,10.6-8.9,21.2-13.6,28.2c-5.3,8-9.7,11.2-13.2,9.2c-4.9-3-7.7-20.8-4.4-38c0.1-1,0-0.8-0.1,0
		C283.7,151.4,280.4,177,269.8,177z M294.3,87.8c-1-1.6-2-3.2-3-4c-5.9-4.4-10.3,17.2-15,40.6c-4.9,23.4-7,40.4-1.9,40.4
		c4.9,0,5.4-9.8,11.2-36.2c3.4-16.2,6.4-29.8,8-37.8C293.8,89.2,294.1,88.4,294.3,87.8z"/>
	<path fill="#FF4646" d="M312.4,139.2c4.1-23.4,11.3-53.4,14.7-74.4c0.1-0.8,24,1,22,9.4c-0.6,2.2-4.1,11.4-9.4,33.8
		c6.6-20,14.2-34.2,23-34.2s12.2,12.2,9.9,32c5.9-18.8,12.7-32,21.6-32c11.6,0,13.6,20.8,6.3,52.6c-7.2,30.6-8,37.6-3.6,32.6
		c3.3-3.8,7.4-12.2,12.2-25c2.7-7,3.4-7.6,3.4-4c0,1.2-0.4,4-2.1,8.2c-4.3,10.6-8.9,21.2-13.6,28.2c-6.2,9.2-11.7,13.8-16,11.2
		c-4.4-3-9.6-19.2-2.3-51.2c6.4-28.6,11.6-38.4,7.9-38.4c-6,0-13.9,26.8-25.5,80.6c-1.3,8-1.4,9-1.4,9
		c-13.6,3.4-19.6-19.8-12.4-51.2c6.6-28.6,11.6-38.4,7.9-38.4c-6,0-15.2,26.2-26.6,79c-1.6,9.6-1.6,10.6-1.6,10.6
		C316.7,180,306.6,172,312.4,139.2z"/>
	<path fill="#FF4646" d="M420.8,177c-11.6,0-21.5-26-15.6-52.6c8.9-40,32.3-57.4,38.2-48.2c2.1,3.4,4.1,7.6,5.4,11.2
		c6.4,0.8,18,4.6,17,9.2c-0.4,1.8-10.4,28.8-13.6,55.2c-1.7,14.8-2.4,16.6,2,11.6c3.3-3.8,9-16.6,13.7-29.4c2.7-7,3.4-7.6,3.4-4
		c0,1.2-0.4,4-2.1,8.2c-4.3,10.6-8.9,21.2-13.6,28.2c-5.3,8-9.7,11.2-13.2,9.2c-4.9-3-7.7-20.8-4.4-38c0.1-1,0-0.8-0.1,0
		C434.7,151.4,431.4,177,420.8,177z M445.3,87.8c-1-1.6-2-3.2-3-4c-5.9-4.4-10.3,17.2-15,40.6c-4.9,23.4-7,40.4-1.9,40.4
		c4.9,0,5.4-9.8,11.2-36.2c3.4-16.2,6.4-29.8,8-37.8C444.9,89.2,445.1,88.4,445.3,87.8z"/>
	<path fill="#FF4646" d="M475.2,196.4c-24.7,3.8-53.5,18.8-73.9,37c-2.3,2-7.9-31,10-41c15-8.4,39.9-12.8,64.2-10.8
		c0.7-18.4,3-36.8,6.4-53c7-33.6,10.2-30,6.4-32c-0.9-0.4-1.7-0.8-2.6-1.4c-5,14.2-11.3,29.4-15.4,40.6c-1.6,4.2-3,6.2-3.7,6.8
		c-2.1,2-2.1,0.8,0.6-6c6.6-16.6,10.3-32.8,11.7-46.6c-5.3-4.8-9.3-11-10.2-16.6c-1.7-10.2,24.2-12,24.2-11.4
		c0.4,5.8-1.1,13.8-3.7,22.6c0.6,0.4,1.3,0.6,2,1c13.4,6.8,19.9,6.6,15.6,24.4c-1.9,7.4-3,13.2-4.1,18.8c-3.7,17.6-6.1,37-7.6,56
		C512.8,189,528.7,197,538,210c21.7,30.4,4.3,75.8-29.9,75.8C485.2,285.8,475.3,243,475.2,196.4z M494.5,195.8
		c-2.1,44.6,2.9,83.6,16.3,83.6c18.9,0,28.2-42.8,9.2-69.4C513.9,201.6,504.9,197,494.5,195.8z"/>
	<path fill="#FF4646" d="M515.6,62.6c3,0.2,5.9,0.2,8.9,0c2.3-11.8,4.6-24.4,6.7-37.2c0.1-0.8,25.5-0.2,22.7,9.4
		c-0.3,0.6-2.9,9-6.4,22.4c23.3-8.8,44.2-27.2,59.9-43c2.1-2.2,8.4,30.2-8.9,41.8c-12.7,8.4-32.8,13.8-54.6,14.8
		c-1.1,4.2-2.1,8.8-3.3,13.4c-6.7,28.6-12.4,54.4-14,67.6c-1,10,2.1,11.6,5.6,7c2.4-3.4,6.9-12,11.6-24.8c2.7-7,3.4-7.6,3.4-4
		c0,1.2-0.4,4-2.1,8.2c-4.3,10.6-8.9,21.2-13.6,28.2c-5.3,8-12.6,13.2-16,11.2c-5.3-3-9.9-20.6-6.4-39.8
		c1.7-10.2,7.6-35.4,13.9-67.2c-3-0.2-6-0.4-9-0.8C508.5,69.2,514.9,62.4,515.6,62.6z"/>
</g>
<g>
	<path fill="#FF4646" d="M178.6,249.4c-3.1-3.1-11.9-7.7-5.8-22.4v-0.1c2.5-0.4,13.3,1.5,12.5,4.1c-0.3,0.8-7.6,14-5.9,14.9
		c2.5,1.3,13.7,3.2,11.2-8.1c-1.2-5.3-7.6-13.9-8.9-19.8c-3.5-16.5,19.6-17.7,23-14.3c3.8,3.8,8.9,6.8,4.6,17.4v0.1
		c-2.5,0.3-13.3-1.5-12.5-4.2c0.2-0.7,8.6-8.9,7-9.9c-2.5-1.5-11.9-4.1-9.4,7.2c1.2,5.5,7.9,15.2,9.1,20.6
		C207,251.5,181.9,252.7,178.6,249.4z"/>
	<path fill="#FF4646" d="M188.9,198.1c9.9,1.1,19.5,0.8,28.7-0.4c1.3-4.8,2.5-9.8,3.8-14.9c0.1-0.4,16-0.1,14.3,4.2
		c-0.1,0.2-1.3,3.1-3.1,7.7c14.3-3.8,27-9.9,36.8-17c1.3-1,5.3,13.6-5.6,18.8c-8.1,3.9-20.5,5.8-34.3,6.3c-0.7,2-1.4,4.1-2.2,6.4
		c-4.2,12.9-7.8,24.5-8.8,30.4c-0.5,3.5,1.7,4.4,3.7,3.1c1.7-1.3,4.1-5.3,7.1-11.1c1.7-3.1,2.2-3.4,2.2-1.8c0,0.5-0.3,1.8-1.3,3.7
		c-2.7,4.8-5.6,9.5-8.5,12.7c-3.5,3.8-7,5.7-9.4,5c-3.9-1.2-7.2-8.2-4.7-17.9c1.1-4.6,4.8-16.1,8.7-30.4c-9.4-0.2-19-0.9-28.1-2
		C183.7,200.4,188.8,198.1,188.9,198.1z"/>
	<path fill="#FF4646" d="M242.8,227c-5.1,12.8-9.4,18.2-6.2,18.2c4.5,0,10.9-12.9,18.2-37.1v0.1c0.2-0.7,0.4-1.4,0.5-1.9
		c0.4-1.2,0.5-1.6,0.5-1.6c2.5-0.4,13.7,1.5,12.9,4.2c-0.3,0.7-7.5,19-9.4,30.9c-0.8,3.8-0.2,7.1,3,2c1.7-2.8,2.6-1.1,0.4,1.9
		c-0.7,1-1.4,1.8-2.2,2.6c-3.3,3.6-7,5.9-9.2,5c-2.7-1.1-5.6-6.5-4.4-15.4c-4,8.7-8.5,14.7-13.1,14.7c-7.3,0-10.9-8.7-4.9-23.6
		c6.8-16.6,5.7-23,5.8-23C242.2,202.6,250.2,208.7,242.8,227z"/>
	<path fill="#FF4646" d="M275.6,250.9c-7.3,0-13.5-11.7-9.8-23.6c5.6-18,21.2-25.8,24.9-21.7c0.5,0.6,1,1.2,1.4,1.9l1.4-4.7
		c3.4-11,4.9-15.6,7-25.1c0.1-0.3,16-0.1,14.3,4.2c-0.1,0.4-4.8,11.7-8.9,24.5c-4.2,12.9-8.7,27.2-9.7,33.2
		c-1.1,5.1-0.2,4.9,1.7,3.1c1.5-1.5,4.3-5.3,7.3-11.1c1.7-3.1,2.2-3.4,2.2-1.8c0,0.5-0.3,1.8-1.3,3.7c-2.7,4.8-5.6,9.5-8.5,12.7
		c-3.3,3.6-6.1,5-8.3,4.1c-3.1-1.3-4-9.4-1.9-17.1c0.1-0.4,0-0.4-0.1,0C285.3,239.4,282.3,250.9,275.6,250.9z M291.3,210.5
		c-0.5-0.5-0.9-0.8-1.3-1.1c-3.7-2-7.3,7.3-10.3,17.8c-3.1,10.5-4.4,18.2-1.2,18.2c3.1,0,3.4-4.4,7-16.3
		C286.3,226.4,288.7,218.9,291.3,210.5z"/>
	<path fill="#FF4646" d="M307.3,212.1c0.4-1.2,0.4-1.6,0.4-1.6c2.5-0.3,13.7,1.5,12.9,4.2c-0.3,0.7-7.5,17.4-9.4,29.3
		c-0.8,5.8,0,5.8,2,2.9c2.6-4,6.4-10.7,8.9-15.5c1.6-3.1,2.1-3.4,2.1-1.7c0,0.4-0.3,1.7-1.3,3.6c-2.7,4.9-7.2,12.9-10.3,17.2
		c-2.9,4-6.2,5.5-8.4,4.6c-3.2-1.3-7.6-8.6-3.8-21.6C302.5,226.3,306.2,215.7,307.3,212.1z M316,206.6c-3.8-1.1-7.6-4.8-6.3-8.1
		c1.3-3.1,6.7-4.9,11.7-3.8c3.3,0.8,7.6,4.5,6.3,8.1C326.5,206,320.1,207.7,316,206.6z"/>
	<path fill="#FF4646" d="M360.6,229.5c-2.1,2.6-4.5,5.1-7.3,6.7c-6.2,10.2-16.4,14.7-22.7,14.7c-7.8,0-14.8-11.7-11.1-23.6
		c5.7-18.3,22.9-26,26.8-21.7c0.6,0.8,1.3,1.7,1.9,2.6c6.7,0.8,12.2,8.9,8.7,20c-0.5,1.8-1.3,3.4-2,4.9c1.2-0.8,2.2-1.9,3.3-3.1
		c2.6-3.4,5-7.2,6.6-11.4c-3-6.8-7-12.2-7.4-14.3c-1-4.6,15.6-8,15.6-7.7c0.5,4.8-0.5,9.8-2.3,14.6c5.4,5.9,12.4,14.2,12.4,20.4
		c0,1.3-0.2,2.7-0.5,3.9c2.6-1,4.7-2.2,5.6-3.8c1.9-3.1,2.2-3.4,2.2-1.8c0,0.5-0.2,1.8-1.3,3.6c-1.2,2-4,3.4-7.1,4.3
		c-5,11.6-23.3,15.9-26.8,12.4c-3.6-3.6,3.9-10.8,12.9-12.5c0.9-5.7-0.3-11.3-2.1-16.3C365.5,222.2,362.6,227.1,360.6,229.5z
		 M341,235.1c-5.3-6.2-2.2-23.8,4.3-26.6c-4.5-2.2-8.6,7-12,18.8c-3.1,10.5-4.9,21.1-1.2,21.1C335.9,248.4,338.6,242.5,341,235.1z
		 M342.3,230.9l0.8-2.8c3-10.3,5.1-17.3,2.1-17.3C342.9,210.9,339.7,224.3,342.3,230.9z M367.5,239.8c0-0.2,0.1-0.3,0.1-0.4
		c-5.5,1.6-7.6,6.6-5.9,8.3C363.7,249.7,365.1,248.9,367.5,239.8z"/>
</g>
</svg>
