<?xml version="1.0" encoding="utf-8"?>
<!-- Generator: Adobe Illustrator 16.0.0, SVG Export Plug-In . SVG Version: 6.00 Build 0)  -->
<!DOCTYPE svg PUBLIC "-//W3C//DTD SVG 1.1//EN" "http://www.w3.org/Graphics/SVG/1.1/DTD/svg11.dtd">
<svg version="1.1" id="Layer_1" xmlns="http://www.w3.org/2000/svg" xmlns:xlink="http://www.w3.org/1999/xlink" x="0px" y="0px"
	 width="1128px" height="646px" viewBox="0 0 1128 646" enable-background="new 0 0 1128 646" xml:space="preserve">
<g id="Laptop" transform="translate(1.000000, 1.000000)" sketch:type="MSLayerGroup">
	<path id="bezel_1_" sketch:type="MSShapeGroup" fill="#FEFEFE" stroke="#8492A5" stroke-width="2" d="M961.5,15.3H170.3
		c-21.5,0-39.9,17.7-39.9,39.5v520.4h871V54.8C1001.4,33,983.1,15.3,961.5,15.3z"/>
	<circle id="webcam" sketch:type="MSShapeGroup" fill="none" stroke="#8492A5" stroke-width="2" cx="567.5" cy="45.6" r="6.4">
	</circle>
	<g id="bottom" transform="translate(0.000000, 351.000000)" sketch:type="MSShapeGroup">
		<path id="Shape" fill="#FDFDFD" stroke="#8492A5" stroke-width="2" d="M1036.2,273.7H95.8c-48.9,0-81.8-16.8-81.8-23.9v-21.7
			c0-2.1,2.1-3.9,4.8-3.9h1094.5c2.7,0,4.8,1.7,4.8,3.9v22.5C1118,256.3,1092.5,273.7,1036.2,273.7z"/>
		<path id="Line" fill="none" stroke="#8492A5" stroke-linecap="square" d="M14.7,247.4h1100.3"/>
	</g>
	
		<rect id="screen_1_" x="165.5" y="77.5" sketch:type="MSShapeGroup" fill="#FFFFFF" stroke="#8492A5" width="799.4" height="465.8">
	</rect>
	<path id="touchpad" sketch:type="MSShapeGroup" fill="#FFFFFF" stroke="#8492A5" d="M685.6,576.8v4.9c0,3.5-6.9,4.6-12.1,4.6H458.7
		c-5.5,0-12.5-1.1-12.5-4.6v-4.9"/>
</g>
</svg>
